# Blender v2.80 (sub 75) OBJ File: 'watertrough.blend'
# www.blender.org
mtllib watertrough.mtl
o Cube
v 0.888809 -0.895837 -3.941820
v 1.000000 -1.000000 -4.092976
v 0.888809 -0.895837 3.896928
v 1.000000 -1.000000 4.092976
v -0.651013 -0.895837 -3.941820
v -1.000000 -1.000000 -4.092976
v -0.651013 -0.895837 3.896928
v -1.000000 -1.000000 4.092976
v 1.148399 1.000000 4.700371
v -1.148399 1.000000 4.700371
v 1.148399 1.000000 -4.700371
v -1.148399 1.000000 -4.700371
v 0.888809 -0.895837 3.896928
v -0.651013 -0.895837 3.896928
v 0.888809 -0.895837 -3.941820
v -0.651013 -0.895837 -3.941820
vt 0.296694 0.445479
vt 0.296694 0.354704
vt 0.758802 0.354703
vt 0.758802 0.445478
vt 0.605911 0.118343
vt 0.729132 0.109594
vt 0.729132 0.244994
vt 0.605911 0.236246
vt 0.641718 0.354473
vt 0.087529 0.354473
vt 0.123336 0.236246
vt 0.123336 0.118342
vt 0.087529 0.000115
vt 0.641718 0.000115
vt 0.000115 0.244994
vt 0.000115 0.109594
vt 0.101153 0.816686
vt 0.201175 0.832315
vt 0.296464 0.999885
vt 0.009412 0.993316
vt 0.096932 0.529978
vt 0.000115 0.354703
vt 0.194979 0.528944
vt 0.296464 0.367543
vt 0.104446 0.814796
vt 0.194893 0.829535
vt 0.102567 0.531704
vt 0.191457 0.531287
vn 0.0000 1.0000 0.0000
vn 0.0000 -0.2906 0.9568
vn -0.9973 -0.0740 0.0000
vn 0.0000 -1.0000 0.0000
vn 0.9973 -0.0740 0.0000
vn 0.0000 -0.2906 -0.9568
vn 0.0000 0.3902 -0.9207
vn -0.9908 0.1357 0.0000
vn 0.9673 0.2538 0.0000
vn 0.0000 0.3715 0.9284
vn 0.0000 0.0000 1.0000
usemtl Material
s off
f 1/1/1 5/2/1 7/3/1 3/4/1
f 4/5/2 9/6/2 10/7/2 8/8/2
f 8/8/3 10/9/3 12/10/3 6/11/3
f 6/11/4 2/12/4 4/5/4 8/8/4
f 2/12/5 11/13/5 9/14/5 4/5/5
f 6/11/6 12/15/6 11/16/6 2/12/6
f 13/17/7 14/18/7 10/19/7 9/20/7
f 15/21/8 13/17/8 9/20/8 11/22/8
f 14/18/9 16/23/9 12/24/9 10/19/9
f 16/23/10 15/21/10 11/22/10 12/24/10
f 3/25/11 7/26/11 14/18/11 13/17/11
f 1/27/11 3/25/11 13/17/11 15/21/11
f 7/26/11 5/28/11 16/23/11 14/18/11
f 5/28/11 1/27/11 15/21/11 16/23/11
